G04 DipTrace 3.0.0.1*
G04 BoardOutline.gbr*
%MOIN*%
G04 #@! TF.FileFunction,Profile*
G04 #@! TF.Part,Single*
%ADD11C,0.005512*%
%FSLAX26Y26*%
G04*
G70*
G90*
G75*
G01*
G04 BoardOutline*
%LPD*%
X2394016Y1394016D2*
D11*
G02X2394016Y644016I-13J-375000D01*
G01*
X2306549Y635315D1*
X2217533Y612008D1*
X2127257Y578307D1*
X2035997Y538451D1*
X1944029Y496627D1*
X1853320Y457717D1*
X1762480Y424987D1*
X1671785Y402428D1*
X1581509Y394016D1*
X1489593Y402717D1*
X1397244Y426024D1*
X1304751Y459724D1*
X1212402Y499580D1*
X1120486Y541404D1*
X1030892Y580315D1*
X942283Y613045D1*
X854895Y635604D1*
X769016Y644016D1*
G02X769003Y1394016I0J375000D01*
G01*
X856470Y1402717D1*
X945486Y1426024D1*
X1035761Y1459724D1*
X1127021Y1499580D1*
X1218990Y1541404D1*
X1309698Y1580315D1*
X1400538Y1613045D1*
X1491234Y1635604D1*
X1581509Y1644016D1*
X1673425Y1635315D1*
X1765774Y1612008D1*
X1858268Y1578307D1*
X1950617Y1538451D1*
X2042533Y1496627D1*
X2132126Y1457717D1*
X2220735Y1424987D1*
X2308123Y1402428D1*
X2394016Y1394016D1*
X2449514Y1019016D2*
X2442076Y991266D1*
X2421761Y970952D1*
X2394010Y963517D1*
X2366260Y970952D1*
X2345944Y991265D1*
X2338505Y1019014D1*
X2345943Y1046766D1*
X2366259Y1067079D1*
X2394010Y1074514D1*
X2421761Y1067079D1*
X2442078Y1046765D1*
X2449516Y1019014D1*
X824514Y1019016D2*
X817076Y991266D1*
X796761Y970953D1*
X769010Y963517D1*
X741260Y970952D1*
X720944Y991265D1*
X713505Y1019014D1*
X720943Y1046766D1*
X741259Y1067079D1*
X769010Y1074514D1*
X796761Y1067079D1*
X817078Y1046765D1*
X824516Y1019014D1*
X1486024Y679147D2*
X1477585Y647651D1*
X1454528Y624594D1*
X1423033Y616155D1*
X1391537Y624594D1*
X1368480Y647650D1*
X1360041Y679146D1*
X1368479Y710643D1*
X1391536Y733700D1*
X1423033Y742139D1*
X1454529Y733699D1*
X1477586Y710642D1*
X1486025Y679146D1*
X1359055Y1152126D2*
X1350616Y1120630D1*
X1327560Y1097573D1*
X1296064Y1089134D1*
X1264568Y1097573D1*
X1241512Y1120629D1*
X1233072Y1152125D1*
X1241511Y1183622D1*
X1264568Y1206679D1*
X1296064Y1215118D1*
X1327561Y1206678D1*
X1350617Y1183621D1*
X1359056Y1152125D1*
X1802979Y1358885D2*
X1794540Y1327389D1*
X1771484Y1304332D1*
X1739988Y1295892D1*
X1708492Y1304331D1*
X1685436Y1327388D1*
X1676996Y1358883D1*
X1685435Y1390381D1*
X1708492Y1413438D1*
X1739988Y1421877D1*
X1771484Y1413437D1*
X1794541Y1390380D1*
X1802980Y1358883D1*
X1929948Y885906D2*
X1921509Y854410D1*
X1898452Y831353D1*
X1866957Y822913D1*
X1835461Y831352D1*
X1812404Y854409D1*
X1803965Y885904D1*
X1812403Y917402D1*
X1835460Y940459D1*
X1866957Y948898D1*
X1898453Y940458D1*
X1921510Y917401D1*
X1929949Y885904D1*
X1737756Y1019016D2*
X1733216Y981624D1*
X1719859Y946405D1*
X1698462Y915405D1*
X1670268Y890427D1*
X1636916Y872923D1*
X1600344Y863908D1*
X1562677D1*
X1526105Y872922D1*
X1492753Y890427D1*
X1464558Y915404D1*
X1443161Y946403D1*
X1429804Y981622D1*
X1425264Y1019014D1*
X1429803Y1056408D1*
X1443160Y1091627D1*
X1464557Y1122627D1*
X1492752Y1147605D1*
X1526104Y1165109D1*
X1562677Y1174123D1*
X1600344D1*
X1636917Y1165109D1*
X1670269Y1147604D1*
X1698463Y1122626D1*
X1719860Y1091626D1*
X1733217Y1056407D1*
X1737757Y1019014D1*
M02*
